<?xml version="1.0" encoding="UTF-8"?>
<svg id="Layer_2" data-name="Layer 2" xmlns="http://www.w3.org/2000/svg" viewBox="0 0 249.14 105.19" width="400">
  <defs>
    <style>
      .cls-1 {
        fill: #231f20;
      }

      .cls-1, .cls-2, .cls-3, .cls-4, .cls-5 {
        stroke-width: 0px;
      }

      .cls-2 {
        fill: #2e3192;
      }

      .cls-3 {
        fill: #fbb040;
      }

      .cls-4 {
        fill: #00aeef;
      }

      .cls-5 {
        fill: #00a651;
      }
    </style>
  </defs>
  <g id="Layer_1-2" data-name="Layer 1">
    <g>
      <g>
        <path class="cls-1" d="M7.84,105.05l-1.27-3.26H2.46l-1.26,3.26H0l4.05-10.28h1l4.03,10.28h-1.23ZM6.2,100.72l-1.19-3.17c-.15-.4-.31-.89-.48-1.48-.1.45-.25.94-.44,1.48l-1.2,3.17h3.31Z"/>
        <path class="cls-1" d="M18.76,105.05h-1.36l-5.59-8.59h-.06c.07,1.01.11,1.93.11,2.77v5.82h-1.1v-10.24h1.34l5.58,8.56h.06c0-.13-.03-.53-.06-1.21-.03-.68-.04-1.17-.04-1.47v-5.88h1.11v10.24Z"/>
        <path class="cls-1" d="M31.58,105.05h-5.71v-10.24h5.71v1.06h-4.52v3.3h4.24v1.05h-4.24v3.77h4.52v1.06Z"/>
        <path class="cls-1" d="M42.14,105.05h-1.36l-5.59-8.59h-.06c.07,1.01.11,1.93.11,2.77v5.82h-1.1v-10.24h1.34l5.58,8.56h.06c0-.13-.03-.53-.06-1.21-.03-.68-.04-1.17-.04-1.47v-5.88h1.11v10.24Z"/>
        <path class="cls-1" d="M50.95,105.05h-5.71v-10.24h5.71v1.06h-4.52v3.3h4.24v1.05h-4.24v3.77h4.52v1.06Z"/>
        <path class="cls-1" d="M54.69,100.79v4.26h-1.19v-10.24h2.81c1.25,0,2.18.24,2.78.72.6.48.9,1.2.9,2.17,0,1.35-.69,2.27-2.06,2.74l2.78,4.6h-1.41l-2.48-4.26h-2.14ZM54.69,99.77h1.63c.84,0,1.46-.17,1.85-.5.39-.33.59-.83.59-1.5s-.2-1.16-.6-1.46-1.04-.45-1.92-.45h-1.55v3.91Z"/>
        <path class="cls-1" d="M67.15,99.68h3.48v4.98c-.54.17-1.09.3-1.65.39-.56.09-1.21.13-1.95.13-1.55,0-2.76-.46-3.62-1.38s-1.29-2.21-1.29-3.88c0-1.06.21-2,.64-2.8.43-.8,1.04-1.41,1.84-1.83.8-.42,1.74-.63,2.82-.63s2.11.2,3.05.6l-.46,1.05c-.92-.39-1.81-.59-2.67-.59-1.25,0-2.22.37-2.92,1.11s-1.05,1.77-1.05,3.09c0,1.38.34,2.43,1.01,3.14s1.67,1.07,2.97,1.07c.71,0,1.4-.08,2.08-.25v-3.15h-2.29v-1.06Z"/>
        <path class="cls-1" d="M75.98,99.93l2.73-5.12h1.29l-3.42,6.27v3.97h-1.2v-3.91l-3.41-6.32h1.3l2.71,5.12Z"/>
        <path class="cls-1" d="M90.24,105.05l-3.47-9.07h-.06c.07.72.1,1.57.1,2.56v6.51h-1.1v-10.24h1.79l3.24,8.44h.06l3.27-8.44h1.78v10.24h-1.19v-6.6c0-.76.03-1.58.1-2.46h-.06l-3.5,9.06h-.96Z"/>
        <path class="cls-1" d="M107.83,99.91c0,1.64-.41,2.93-1.24,3.87-.83.94-1.98,1.41-3.46,1.41s-2.67-.46-3.49-1.38-1.23-2.22-1.23-3.9.41-2.96,1.23-3.88c.82-.92,1.99-1.38,3.5-1.38s2.62.47,3.45,1.4c.83.93,1.24,2.22,1.24,3.87ZM99.67,99.91c0,1.39.29,2.44.89,3.15.59.72,1.45,1.08,2.57,1.08s1.99-.36,2.57-1.07.87-1.77.87-3.16-.29-2.42-.86-3.13c-.58-.71-1.43-1.07-2.56-1.07s-2,.36-2.59,1.08c-.59.72-.89,1.76-.89,3.13Z"/>
        <path class="cls-1" d="M118.57,99.83c0,1.69-.46,2.98-1.38,3.88-.92.89-2.24,1.34-3.96,1.34h-2.84v-10.24h3.14c1.59,0,2.83.44,3.71,1.32s1.32,2.12,1.32,3.7ZM117.31,99.87c0-1.33-.33-2.34-1-3.02s-1.67-1.02-2.99-1.02h-1.73v8.18h1.45c1.42,0,2.49-.35,3.2-1.05.71-.7,1.07-1.73,1.07-3.1Z"/>
        <path class="cls-1" d="M126.84,105.05h-5.71v-10.24h5.71v1.06h-4.52v3.3h4.24v1.05h-4.24v3.77h4.52v1.06Z"/>
        <path class="cls-1" d="M129.4,105.05v-10.24h1.19v9.16h4.52v1.08h-5.71Z"/>
        <path class="cls-1" d="M137.13,105.05v-10.24h1.19v9.16h4.52v1.08h-5.71Z"/>
        <path class="cls-1" d="M144.86,105.05v-10.24h1.19v10.24h-1.19Z"/>
        <path class="cls-1" d="M157.14,105.05h-1.36l-5.59-8.59h-.06c.08,1.01.11,1.93.11,2.77v5.82h-1.1v-10.24h1.34l5.58,8.56h.06c0-.13-.03-.53-.06-1.21-.03-.68-.04-1.17-.04-1.47v-5.88h1.11v10.24Z"/>
        <path class="cls-1" d="M164.75,99.68h3.48v4.98c-.54.17-1.09.3-1.65.39s-1.21.13-1.95.13c-1.55,0-2.76-.46-3.62-1.38-.86-.92-1.3-2.21-1.3-3.88,0-1.06.21-2,.64-2.8.43-.8,1.04-1.41,1.85-1.83.8-.42,1.74-.63,2.82-.63s2.11.2,3.05.6l-.46,1.05c-.92-.39-1.81-.59-2.67-.59-1.25,0-2.22.37-2.92,1.11s-1.05,1.77-1.05,3.09c0,1.38.34,2.43,1.01,3.14s1.67,1.07,2.97,1.07c.71,0,1.4-.08,2.08-.25v-3.15h-2.29v-1.06Z"/>
        <path class="cls-1" d="M180.76,102.32c0,.9-.33,1.6-.98,2.11-.65.5-1.54.76-2.66.76-1.21,0-2.15-.16-2.8-.47v-1.15c.42.18.88.32,1.37.42.5.1.99.15,1.47.15.79,0,1.39-.15,1.79-.45.4-.3.6-.72.6-1.26,0-.36-.07-.65-.21-.87-.14-.23-.38-.44-.71-.63s-.84-.41-1.52-.65c-.95-.34-1.63-.74-2.04-1.21-.41-.47-.61-1.08-.61-1.83,0-.79.3-1.42.89-1.88s1.38-.7,2.35-.7,1.95.19,2.81.56l-.37,1.04c-.84-.36-1.67-.53-2.46-.53-.63,0-1.12.13-1.48.41-.35.27-.53.65-.53,1.13,0,.35.06.65.2.87.13.23.35.43.66.62.31.19.79.4,1.42.63,1.07.38,1.81.79,2.22,1.23.4.44.61,1.01.61,1.71Z"/>
        <path class="cls-1" d="M192.02,99.91c0,1.64-.41,2.93-1.24,3.87-.83.94-1.98,1.41-3.46,1.41s-2.67-.46-3.49-1.38-1.23-2.22-1.23-3.9.41-2.96,1.23-3.88c.82-.92,1.99-1.38,3.5-1.38s2.62.47,3.45,1.4c.83.93,1.24,2.22,1.24,3.87ZM183.87,99.91c0,1.39.29,2.44.89,3.15.59.72,1.45,1.08,2.57,1.08s1.99-.36,2.57-1.07c.58-.71.87-1.77.87-3.16s-.29-2.42-.86-3.13c-.58-.71-1.43-1.07-2.56-1.07s-2,.36-2.59,1.08-.89,1.76-.89,3.13Z"/>
        <path class="cls-1" d="M195.78,105.05h-1.19v-10.24h5.71v1.06h-4.52v3.75h4.24v1.06h-4.24v4.38Z"/>
        <path class="cls-1" d="M205.43,105.05h-1.19v-9.18h-3.24v-1.06h7.67v1.06h-3.24v9.18Z"/>
        <path class="cls-1" d="M219.44,105.05h-1.18l-2.07-6.86c-.1-.3-.21-.69-.33-1.15-.12-.46-.18-.74-.19-.83-.1.62-.27,1.29-.49,2.02l-2,6.81h-1.18l-2.72-10.24h1.26l1.62,6.32c.22.89.39,1.69.49,2.41.13-.85.31-1.69.56-2.51l1.83-6.23h1.26l1.93,6.28c.22.72.41,1.54.57,2.45.09-.66.26-1.47.5-2.42l1.61-6.31h1.26l-2.74,10.24Z"/>
        <path class="cls-1" d="M230.5,105.05l-1.27-3.26h-4.1l-1.26,3.26h-1.2l4.05-10.28h1l4.03,10.28h-1.23ZM228.85,100.72l-1.19-3.17c-.15-.4-.31-.89-.48-1.48-.1.45-.25.94-.44,1.48l-1.2,3.17h3.31Z"/>
        <path class="cls-1" d="M234.62,100.79v4.26h-1.19v-10.24h2.81c1.26,0,2.18.24,2.78.72.6.48.9,1.2.9,2.17,0,1.35-.69,2.27-2.06,2.74l2.78,4.6h-1.41l-2.48-4.26h-2.14ZM234.62,99.77h1.63c.84,0,1.46-.17,1.85-.5.39-.33.59-.83.59-1.5s-.2-1.16-.6-1.46-1.04-.45-1.92-.45h-1.55v3.91Z"/>
        <path class="cls-1" d="M248.28,105.05h-5.71v-10.24h5.71v1.06h-4.52v3.3h4.24v1.05h-4.24v3.77h4.52v1.06Z"/>
      </g>
      <g>
        <path class="cls-1" d="M114.89,31.93l-2.17-7.14h-10.93l-2.17,7.14h-6.85L103.34,1.82h7.77l10.62,30.11h-6.85ZM111.2,19.46c-2.01-6.47-3.14-10.13-3.4-10.97s-.43-1.52-.54-2.01c-.45,1.75-1.74,6.08-3.88,12.98h7.82Z"/>
        <path class="cls-1" d="M133.12,32.34c-2.69,0-4.81-1.05-6.35-3.14-1.54-2.09-2.31-4.99-2.31-8.7s.78-6.69,2.35-8.79c1.57-2.1,3.72-3.15,6.47-3.15,2.88,0,5.09,1.12,6.6,3.36h.21c-.31-1.71-.47-3.23-.47-4.57V0h6.28v31.92h-4.8l-1.21-2.97h-.27c-1.42,2.26-3.59,3.38-6.5,3.38ZM135.32,27.35c1.6,0,2.77-.46,3.52-1.39s1.15-2.51,1.22-4.74v-.68c0-2.46-.38-4.23-1.14-5.29-.76-1.07-1.99-1.6-3.7-1.6-1.39,0-2.48.59-3.25,1.77-.77,1.18-1.16,2.9-1.16,5.16s.39,3.95,1.17,5.08,1.89,1.69,3.34,1.69Z"/>
        <path class="cls-1" d="M181,16.89c0,4.96-1.23,8.78-3.69,11.45-2.46,2.67-5.99,4-10.58,4s-8.12-1.33-10.58-4c-2.46-2.67-3.69-6.5-3.69-11.49s1.23-8.8,3.7-11.44c2.47-2.63,6.01-3.95,10.62-3.95s8.13,1.33,10.57,3.98c2.44,2.65,3.66,6.47,3.66,11.45ZM159.11,16.89c0,3.35.64,5.87,1.91,7.57,1.27,1.7,3.17,2.54,5.7,2.54,5.07,0,7.61-3.37,7.61-10.11s-2.52-10.13-7.57-10.13c-2.53,0-4.44.85-5.72,2.55-1.29,1.7-1.93,4.23-1.93,7.58Z"/>
        <path class="cls-1" d="M200.15,32.34c-2.69,0-4.81-.98-6.34-2.93h-.33c.22,1.92.33,3.02.33,3.32v9.29h-6.26V8.99h5.09l.88,2.97h.29c1.46-2.27,3.63-3.41,6.5-3.41,2.71,0,4.83,1.05,6.36,3.14,1.53,2.09,2.3,5,2.3,8.72,0,2.45-.36,4.57-1.08,6.38-.72,1.8-1.74,3.18-3.07,4.12s-2.88,1.42-4.68,1.42ZM198.31,13.57c-1.55,0-2.67.48-3.38,1.43s-1.08,2.52-1.11,4.71v.68c0,2.46.37,4.22,1.1,5.29.73,1.07,1.89,1.6,3.48,1.6,2.8,0,4.21-2.31,4.21-6.93,0-2.26-.35-3.95-1.04-5.08s-1.77-1.69-3.25-1.69Z"/>
        <path class="cls-1" d="M227.04,31.93h-6.36V7.23h-8.14V1.94h22.65v5.29h-8.14v24.7Z"/>
        <path class="cls-1" d="M238.12,23.23v-5.13h11.02v5.13h-11.02Z"/>
        <path class="cls-1" d="M123.13,82.34h-8.08l-13.04-22.69h-.18c.26,4.01.39,6.87.39,8.57v14.11h-5.68v-29.99h8.02l13.03,22.46h.14c-.21-3.9-.31-6.65-.31-8.27v-14.19h5.72v29.99Z"/>
        <path class="cls-1" d="M148.79,82.34h-17.27v-29.99h17.27v5.21h-10.91v6.58h10.15v5.21h-10.15v7.73h10.91v5.25Z"/>
        <path class="cls-1" d="M167.46,82.34h-6.36v-24.7h-8.14v-5.29h22.65v5.29h-8.14v24.7Z"/>
        <path class="cls-1" d="M199.77,67.34c0,5.24-.86,9.11-2.57,11.63-1.72,2.52-4.36,3.77-7.93,3.77s-6.07-1.3-7.83-3.9c-1.76-2.6-2.64-6.43-2.64-11.51s.85-9.19,2.56-11.7,4.34-3.76,7.9-3.76,6.07,1.31,7.85,3.94c1.77,2.63,2.66,6.47,2.66,11.53ZM185.1,67.34c0,3.68.32,6.31.95,7.91s1.71,2.39,3.21,2.39,2.54-.81,3.2-2.42c.66-1.61.98-4.24.98-7.88s-.33-6.32-.99-7.93c-.66-1.61-1.73-2.41-3.19-2.41s-2.56.8-3.2,2.41c-.64,1.61-.96,4.25-.96,7.93Z"/>
      </g>
      <g>
        <polyline class="cls-3" points="11.03 22.07 0 22.07 13.79 22.07 13.79 55.17 22.07 55.17 22.07 8.28 55.17 8.28 55.17 0 0 0 0 22.07"/>
        <polygon class="cls-4" points="60.69 11.03 60.69 0 60.69 13.79 27.59 13.79 27.59 22.07 74.48 22.07 74.48 55.17 82.76 55.17 82.76 0 60.69 0 60.69 11.03"/>
        <polyline class="cls-5" points="71.72 60.69 82.76 60.69 68.96 60.69 68.96 27.59 60.69 27.59 60.69 74.48 27.59 74.48 27.59 82.76 82.76 82.76 82.76 60.69"/>
        <polygon class="cls-2" points="22.07 71.72 22.07 82.76 22.07 68.96 55.17 68.96 55.17 60.69 8.28 60.69 8.28 27.59 0 27.59 0 82.76 22.07 82.76 22.07 71.72"/>
      </g>
    </g>
  </g>
</svg>