<?xml version="1.0" encoding="UTF-8"?>
<svg id="Layer_2" data-name="Layer 2" xmlns="http://www.w3.org/2000/svg" viewBox="0 0 249.14 82.76">
  <defs>
    <style>
      .cls-1 {
        fill: #231f20;
      }

      .cls-1, .cls-2, .cls-3, .cls-4, .cls-5 {
        stroke-width: 0px;
      }

      .cls-2 {
        fill: #2e3192;
      }

      .cls-3 {
        fill: #fbb040;
      }

      .cls-4 {
        fill: #00aeef;
      }

      .cls-5 {
        fill: #00a651;
      }
    </style>
  </defs>
  <g id="Layer_1-2" data-name="Layer 1">
    <g>
      <g>
        <path class="cls-1" d="M114.89,31.93l-2.17-7.14h-10.93l-2.17,7.14h-6.85L103.34,1.81h7.77l10.62,30.11h-6.85ZM111.2,19.46c-2.01-6.47-3.14-10.13-3.4-10.97s-.43-1.52-.54-2.01c-.45,1.75-1.74,6.08-3.88,12.98h7.82Z"/>
        <path class="cls-1" d="M133.12,32.34c-2.69,0-4.81-1.04-6.35-3.14-1.54-2.09-2.31-4.99-2.31-8.7s.78-6.69,2.35-8.79c1.57-2.1,3.72-3.15,6.47-3.15,2.88,0,5.09,1.12,6.6,3.37h.21c-.31-1.71-.47-3.23-.47-4.57V.01h6.28v31.92h-4.8l-1.21-2.97h-.27c-1.42,2.26-3.59,3.38-6.5,3.38ZM135.32,27.35c1.6,0,2.77-.46,3.52-1.39s1.15-2.51,1.22-4.74v-.68c0-2.46-.38-4.23-1.14-5.29s-1.99-1.6-3.7-1.6c-1.39,0-2.48.59-3.25,1.77-.77,1.18-1.16,2.9-1.16,5.16s.39,3.95,1.17,5.08c.78,1.13,1.89,1.69,3.34,1.69Z"/>
        <path class="cls-1" d="M181,16.89c0,4.96-1.23,8.78-3.69,11.45-2.46,2.67-5.99,4-10.58,4s-8.12-1.33-10.58-4c-2.46-2.67-3.69-6.49-3.69-11.49s1.23-8.8,3.7-11.44c2.47-2.63,6.01-3.95,10.62-3.95s8.13,1.33,10.57,3.98c2.44,2.65,3.66,6.47,3.66,11.45ZM159.11,16.89c0,3.35.64,5.87,1.91,7.57,1.27,1.7,3.17,2.54,5.7,2.54,5.07,0,7.61-3.37,7.61-10.11s-2.52-10.13-7.57-10.13c-2.53,0-4.44.85-5.72,2.55-1.29,1.7-1.93,4.23-1.93,7.58Z"/>
        <path class="cls-1" d="M200.15,32.34c-2.69,0-4.81-.98-6.34-2.93h-.33c.22,1.92.33,3.02.33,3.32v9.29h-6.26V8.99h5.09l.88,2.97h.29c1.46-2.27,3.63-3.41,6.5-3.41,2.71,0,4.83,1.05,6.36,3.14,1.53,2.09,2.3,5,2.3,8.72,0,2.45-.36,4.57-1.08,6.38-.72,1.8-1.74,3.18-3.07,4.12s-2.88,1.41-4.68,1.41ZM198.31,13.57c-1.55,0-2.67.47-3.38,1.43-.71.95-1.08,2.52-1.11,4.71v.68c0,2.46.37,4.22,1.1,5.29.73,1.07,1.89,1.6,3.48,1.6,2.8,0,4.21-2.31,4.21-6.93,0-2.26-.35-3.95-1.04-5.08-.69-1.13-1.77-1.69-3.25-1.69Z"/>
        <path class="cls-1" d="M227.04,31.93h-6.36V7.23h-8.14V1.94h22.65v5.29h-8.14v24.7Z"/>
        <path class="cls-1" d="M238.12,23.23v-5.13h11.02v5.13h-11.02Z"/>
        <path class="cls-1" d="M123.13,82.34h-8.08l-13.04-22.69h-.18c.26,4.01.39,6.87.39,8.57v14.11h-5.68v-29.99h8.02l13.03,22.46h.14c-.21-3.9-.31-6.65-.31-8.27v-14.2h5.72v29.99Z"/>
        <path class="cls-1" d="M148.79,82.34h-17.27v-29.99h17.27v5.21h-10.91v6.58h10.15v5.21h-10.15v7.73h10.91v5.25Z"/>
        <path class="cls-1" d="M167.46,82.34h-6.36v-24.7h-8.14v-5.29h22.65v5.29h-8.14v24.7Z"/>
        <path class="cls-1" d="M199.77,67.34c0,5.24-.86,9.12-2.57,11.63-1.72,2.52-4.36,3.77-7.93,3.77s-6.07-1.3-7.83-3.9c-1.76-2.6-2.64-6.43-2.64-11.51s.85-9.19,2.56-11.7,4.34-3.76,7.9-3.76,6.07,1.31,7.85,3.94c1.77,2.62,2.66,6.47,2.66,11.53ZM185.1,67.34c0,3.68.32,6.31.95,7.91.64,1.59,1.71,2.39,3.21,2.39s2.54-.81,3.2-2.42.98-4.24.98-7.88-.33-6.32-.99-7.93c-.66-1.61-1.73-2.41-3.19-2.41s-2.56.8-3.2,2.41c-.64,1.61-.96,4.25-.96,7.93Z"/>
      </g>
      <g>
        <polyline class="cls-3" points="11.03 22.07 0 22.07 13.79 22.07 13.79 55.17 22.07 55.17 22.07 8.28 55.17 8.28 55.17 0 0 0 0 22.07"/>
        <polygon class="cls-4" points="60.69 11.03 60.69 0 60.69 13.79 27.59 13.79 27.59 22.07 74.48 22.07 74.48 55.17 82.76 55.17 82.76 0 60.69 0 60.69 11.03"/>
        <polyline class="cls-5" points="71.72 60.69 82.76 60.69 68.96 60.69 68.96 27.59 60.69 27.59 60.69 74.48 27.59 74.48 27.59 82.76 82.76 82.76 82.76 60.69"/>
        <polygon class="cls-2" points="22.07 71.72 22.07 82.76 22.07 68.96 55.17 68.96 55.17 60.69 8.28 60.69 8.28 27.59 0 27.59 0 82.76 22.07 82.76 22.07 71.72"/>
      </g>
    </g>
  </g>
</svg>