<?xml version="1.0" encoding="UTF-8"?>
<svg id="Layer_2" data-name="Layer 2" xmlns="http://www.w3.org/2000/svg" viewBox="0 0 82.76 82.76">
  <defs>
    <style>
      .cls-1 {
        fill: #2e3192;
      }

      .cls-1, .cls-2, .cls-3, .cls-4 {
        stroke-width: 0px;
      }

      .cls-2 {
        fill: #fbb040;
      }

      .cls-3 {
        fill: #00aeef;
      }

      .cls-4 {
        fill: #00a651;
      }
    </style>
  </defs>
  <g id="Layer_1-2" data-name="Layer 1">
    <g>
      <polyline class="cls-2" points="11.03 22.07 0 22.07 13.79 22.07 13.79 55.17 22.07 55.17 22.07 8.28 55.17 8.28 55.17 0 0 0 0 22.07"/>
      <polygon class="cls-3" points="60.69 11.03 60.69 0 60.69 13.79 27.59 13.79 27.59 22.07 74.48 22.07 74.48 55.17 82.76 55.17 82.76 0 60.69 0 60.69 11.03"/>
      <polyline class="cls-4" points="71.72 60.69 82.76 60.69 68.96 60.69 68.96 27.59 60.69 27.59 60.69 74.48 27.59 74.48 27.59 82.76 82.76 82.76 82.76 60.69"/>
      <polygon class="cls-1" points="22.07 71.72 22.07 82.76 22.07 68.96 55.17 68.96 55.17 60.69 8.28 60.69 8.28 27.59 0 27.59 0 82.76 22.07 82.76 22.07 71.72"/>
    </g>
  </g>
</svg>