<?xml version="1.0" encoding="UTF-8"?>
<svg id="Layer_2" data-name="Layer 2" xmlns="http://www.w3.org/2000/svg" xmlns:xlink="http://www.w3.org/1999/xlink" viewBox="0 0 311.11 123.88">
  <defs>
    <style>
      .cls-1 {
        stroke: #fedd11;
      }

      .cls-1, .cls-2, .cls-3, .cls-4, .cls-5, .cls-6, .cls-7, .cls-8, .cls-9, .cls-10, .cls-11, .cls-12, .cls-13, .cls-14, .cls-15, .cls-16 {
        fill: none;
      }

      .cls-1, .cls-2, .cls-3, .cls-4, .cls-6, .cls-7, .cls-9, .cls-10, .cls-12, .cls-13, .cls-16 {
        stroke-miterlimit: 10;
      }

      .cls-1, .cls-6, .cls-10, .cls-12 {
        stroke-width: .29px;
      }

      .cls-2 {
        stroke-width: .05px;
      }

      .cls-2, .cls-13, .cls-14, .cls-15 {
        stroke: #fff;
      }

      .cls-17, .cls-18, .cls-19 {
        fill: #231f20;
      }

      .cls-17, .cls-20, .cls-5, .cls-21, .cls-22, .cls-23, .cls-24, .cls-25 {
        stroke-width: 0px;
      }

      .cls-18 {
        font-size: 8.1px;
      }

      .cls-18, .cls-19 {
        font-family: LucidaBright, 'Lucida Bright';
      }

      .cls-26 {
        clip-path: url(#clippath-2);
      }

      .cls-3 {
        stroke: #00a64f;
      }

      .cls-3, .cls-7 {
        stroke-width: .37px;
      }

      .cls-20 {
        fill: #fedd11;
      }

      .cls-27 {
        clip-path: url(#clippath-6);
      }

      .cls-4 {
        stroke-width: .27px;
      }

      .cls-4, .cls-12 {
        stroke: #f15b2b;
      }

      .cls-28 {
        clip-path: url(#clippath-1);
      }

      .cls-29 {
        clip-path: url(#clippath-4);
      }

      .cls-6, .cls-7, .cls-8, .cls-9, .cls-11, .cls-16 {
        stroke: #231f20;
      }

      .cls-8 {
        stroke-width: .18px;
      }

      .cls-8, .cls-11, .cls-14, .cls-15 {
        stroke-linejoin: round;
      }

      .cls-21 {
        fill: #1b76bc;
      }

      .cls-9 {
        stroke-width: .55px;
      }

      .cls-10 {
        stroke: #1b76bc;
      }

      .cls-22 {
        fill: #00a64f;
      }

      .cls-23 {
        fill: #000;
        fill-rule: evenodd;
      }

      .cls-11, .cls-16 {
        stroke-width: .74px;
      }

      .cls-30 {
        clip-path: url(#clippath);
      }

      .cls-13 {
        stroke-width: .06px;
      }

      .cls-31 {
        clip-path: url(#clippath-3);
      }

      .cls-14 {
        stroke-width: .7px;
      }

      .cls-24 {
        fill: #fff;
      }

      .cls-32 {
        clip-path: url(#clippath-5);
      }

      .cls-25 {
        fill: #f15b2b;
      }

      .cls-19 {
        font-size: 5.15px;
      }

      .cls-15 {
        stroke-width: .26px;
      }
    </style>
    <clipPath id="clippath">
      <rect class="cls-5" x="0" width="311.11" height="123.88"/>
    </clipPath>
    <clipPath id="clippath-1">
      <rect class="cls-5" x="0" width="311.11" height="123.88"/>
    </clipPath>
    <clipPath id="clippath-2">
      <rect class="cls-5" x="82.01" y="63.69" width="14.21" height="21.6"/>
    </clipPath>
    <clipPath id="clippath-3">
      <rect class="cls-5" x="76.3" y="66.75" width="16.26" height="26.33"/>
    </clipPath>
    <clipPath id="clippath-4">
      <rect class="cls-5" x="0" width="311.11" height="123.88"/>
    </clipPath>
    <clipPath id="clippath-5">
      <rect class="cls-5" x="0" width="311.11" height="123.88"/>
    </clipPath>
    <clipPath id="clippath-6">
      <rect class="cls-5" x="0" width="311.11" height="123.88"/>
    </clipPath>
  </defs>
  <g id="Layer_1-2" data-name="Layer 1">
    <g class="cls-30">
      <g class="cls-28">
        <path class="cls-24" d="M149.99,105.25v1.52c0,2.34-1.89,4.23-4.23,4.23h-11.73c-2.34,0-4.23-1.89-4.23-4.23v-1.52c0-2.34,1.89-4.23,4.23-4.23h11.73c2.34,0,4.23,1.89,4.23,4.23"/>
        <rect class="cls-11" x="129.81" y="101.02" width="20.18" height="9.97" rx="4.23" ry="4.23"/>
        <rect class="cls-17" x="128.51" y="107" width="1.3" height="2.17"/>
        <rect class="cls-8" x="128.51" y="107" width="1.3" height="2.17"/>
        <rect class="cls-17" x="128.51" y="102.8" width="1.3" height="2.17"/>
        <rect class="cls-8" x="128.51" y="102.8" width="1.3" height="2.17"/>
        <polygon class="cls-17" points="139.47 106.36 145.11 107.4 138.35 103.46 139.47 106.36"/>
        <polygon class="cls-17" points="140.32 105.68 134.68 104.64 141.44 108.58 140.32 105.68"/>
        <g class="cls-26">
          <polygon class="cls-23" points="89.59 85.29 88.64 85.29 88.8 70.68 89.43 70.68 89.59 85.29"/>
          <path class="cls-23" d="M89.63,67.18c0,1.91-.23,3.46-.52,3.46s-.52-1.55-.52-3.46.23-3.46.52-3.46.52,1.55.52,3.46"/>
          <ellipse class="cls-2" cx="89.11" cy="67.18" rx=".52" ry="3.46"/>
          <path class="cls-23" d="M85.32,72.03c1.95-.96,3.65-1.56,3.79-1.35.14.21-1.32,1.15-3.27,2.11-1.95.96-3.65,1.56-3.79,1.35-.14-.21,1.32-1.15,3.27-2.11"/>
          <path class="cls-2" d="M85.32,72.03c1.95-.96,3.65-1.56,3.79-1.35.14.21-1.32,1.15-3.27,2.11-1.95.96-3.65,1.56-3.79,1.35-.14-.21,1.32-1.15,3.27-2.11Z"/>
          <path class="cls-23" d="M92.91,72.03c-1.95-.96-3.65-1.56-3.79-1.35-.14.21,1.32,1.15,3.27,2.11,1.95.96,3.65,1.56,3.79,1.35.14-.21-1.32-1.15-3.27-2.11"/>
          <path class="cls-2" d="M92.91,72.03c-1.95-.96-3.65-1.56-3.79-1.35-.14.21,1.32,1.15,3.27,2.11,1.95.96,3.65,1.56,3.79,1.35.14-.21-1.32-1.15-3.27-2.11Z"/>
          <path class="cls-23" d="M89.85,70.68c0,.35-.33.63-.74.63s-.74-.28-.74-.63.33-.63.74-.63.74.28.74.63"/>
          <ellipse class="cls-2" cx="89.11" cy="70.68" rx=".74" ry=".63"/>
        </g>
        <g class="cls-31">
          <polygon class="cls-23" points="84.98 93.07 83.88 93.07 84.07 75.26 84.8 75.26 84.98 93.07"/>
          <path class="cls-23" d="M85.02,71c0,2.33-.26,4.22-.59,4.22s-.59-1.89-.59-4.22.26-4.22.59-4.22.59,1.89.59,4.22"/>
          <ellipse class="cls-13" cx="84.43" cy="71" rx=".59" ry="4.22"/>
          <path class="cls-23" d="M80.09,76.91c2.23-1.16,4.17-1.9,4.33-1.65.16.26-1.51,1.41-3.74,2.57-2.23,1.16-4.17,1.9-4.33,1.65-.16-.26,1.51-1.41,3.74-2.57"/>
          <path class="cls-13" d="M80.09,76.91c2.23-1.16,4.17-1.9,4.33-1.65.16.26-1.51,1.41-3.74,2.57-2.23,1.16-4.17,1.9-4.33,1.65-.16-.26,1.51-1.41,3.74-2.57Z"/>
          <path class="cls-23" d="M88.77,76.91c-2.23-1.16-4.17-1.9-4.33-1.65-.16.26,1.51,1.41,3.74,2.57,2.23,1.16,4.17,1.9,4.33,1.65.16-.26-1.51-1.41-3.74-2.57"/>
          <path class="cls-13" d="M88.77,76.91c-2.23-1.16-4.17-1.9-4.33-1.65-.16.26,1.51,1.41,3.74,2.57,2.23,1.16,4.17,1.9,4.33,1.65.16-.26-1.51-1.41-3.74-2.57Z"/>
          <path class="cls-23" d="M85.28,75.26c0,.42-.38.77-.85.77s-.85-.34-.85-.77.38-.77.85-.77.85.34.85.77"/>
          <ellipse class="cls-13" cx="84.43" cy="75.26" rx=".85" ry=".77"/>
        </g>
        <path class="cls-24" d="M225.54,84.28v13.55c0,.92,3.8,1.67,8.48,1.67s8.48-.75,8.48-1.67v-13.55"/>
        <path class="cls-16" d="M225.54,84.28v13.55c0,.92,3.8,1.67,8.48,1.67s8.48-.75,8.48-1.67v-13.55"/>
        <path class="cls-24" d="M242.5,84.28c0,.92-3.8,1.67-8.48,1.67s-8.48-.75-8.48-1.67,3.8-1.67,8.48-1.67,8.48.75,8.48,1.67"/>
        <path class="cls-16" d="M242.5,84.28c0,.92-3.8,1.67-8.48,1.67s-8.48-.75-8.48-1.67,3.8-1.67,8.48-1.67,8.48.75,8.48,1.67Z"/>
        <polyline class="cls-9" points="238.77 85.84 238.61 96.59 238.63 95.44 240.3 94.91 240.3 96.13 240.3 85.52 240.3 86.64 238.75 87.1 238.72 88.63 240.3 88.25 240.3 89.78 238.7 90.24 238.69 91.89 240.3 91.54 240.3 93.3 238.69 93.76"/>
        <path class="cls-24" d="M209.52,84.82v17.92c0,1.22,5.02,2.21,11.21,2.21s11.21-.99,11.21-2.21v-17.92"/>
        <path class="cls-16" d="M209.52,84.82v17.92c0,1.22,5.02,2.21,11.21,2.21s11.21-.99,11.21-2.21v-17.92"/>
        <path class="cls-24" d="M231.94,84.82c0,1.22-5.02,2.21-11.21,2.21s-11.21-.99-11.21-2.21,5.02-2.21,11.21-2.21,11.21.99,11.21,2.21"/>
        <path class="cls-16" d="M231.94,84.82c0,1.22-5.02,2.21-11.21,2.21s-11.21-.99-11.21-2.21,5.02-2.21,11.21-2.21,11.21.99,11.21,2.21Z"/>
        <polyline class="cls-9" points="227 86.88 226.8 101.1 226.82 99.58 229.03 98.87 229.03 100.49 229.03 86.46 229.03 87.94 226.98 88.54 226.95 90.57 229.03 90.06 229.03 92.09 226.92 92.69 226.9 94.88 229.03 94.42 229.03 96.75 226.9 97.36"/>
      </g>
      <text class="cls-19" transform="translate(114.3 48.63)"><tspan x="0" y="0">Electricity</tspan></text>
      <text class="cls-19" transform="translate(64.38 24.03)"><tspan x="0" y="0">Naphtha</tspan></text>
      <text class="cls-19" transform="translate(205.53 61.09)"><tspan x="0" y="0">Ethylene</tspan></text>
      <g class="cls-29">
        <path class="cls-24" d="M31.53,28.54c0,.97-2.76,1.75-6.17,1.75s-6.17-.78-6.17-1.75,2.76-1.75,6.17-1.75,6.17.78,6.17,1.75"/>
        <path class="cls-16" d="M31.53,28.54c0,.97-2.76,1.75-6.17,1.75s-6.17-.78-6.17-1.75,2.76-1.75,6.17-1.75,6.17.78,6.17,1.75Z"/>
        <path class="cls-24" d="M19.44,14.34v14.2c0,.97,2.65,1.75,5.92,1.75s5.92-.78,5.92-1.75v-14.2"/>
        <path class="cls-16" d="M19.44,14.34v14.2c0,.97,2.65,1.75,5.92,1.75s5.92-.78,5.92-1.75v-14.2"/>
        <path class="cls-24" d="M31.49,14.34c0,.97-2.76,1.75-6.17,1.75s-6.17-.78-6.17-1.75,2.76-1.75,6.17-1.75,6.17.78,6.17,1.75"/>
        <path class="cls-16" d="M31.49,14.34c0,.97-2.76,1.75-6.17,1.75s-6.17-.78-6.17-1.75,2.76-1.75,6.17-1.75,6.17.78,6.17,1.75Z"/>
        <path class="cls-16" d="M31.25,17.21c.18.16.28.34.28.52,0,.97-2.76,1.75-6.17,1.75s-6.17-.78-6.17-1.75c0-.17.08-.33.24-.48"/>
        <path class="cls-16" d="M31.25,24.77c.18.16.28.34.28.52,0,.97-2.76,1.75-6.17,1.75s-6.17-.78-6.17-1.75c0-.17.08-.33.24-.48"/>
        <path class="cls-17" d="M27.13,24.03c-.12.88-.78,1.6-1.75,1.6s-1.75-.72-1.75-1.6,1.2-1.68,1.47-3.38c.88,1.34,2.15,2.41,2.02,3.38"/>
        <path class="cls-16" d="M27.13,24.03c-.12.88-.78,1.6-1.75,1.6s-1.75-.72-1.75-1.6,1.2-1.68,1.47-3.38c.88,1.34,2.15,2.41,2.02,3.38Z"/>
        <rect class="cls-24" x="162.89" y="84.56" width="24.12" height="1.9"/>
        <rect class="cls-16" x="162.89" y="84.56" width="24.12" height="1.9"/>
        <polygon class="cls-24" points="162.85 31.55 167.17 14.93 182.77 14.93 186.96 31.29 199.41 41.6 199.41 86.43 150.58 86.43 150.57 41.6 162.85 31.55"/>
        <polygon class="cls-16" points="162.85 31.55 167.17 14.93 182.77 14.93 186.96 31.29 199.41 41.6 199.41 86.43 150.58 86.43 150.57 41.6 162.85 31.55"/>
        <rect class="cls-24" x="187.01" y="48.63" width="12.32" height="37.82"/>
        <rect class="cls-16" x="187.01" y="48.63" width="12.32" height="37.82"/>
        <rect class="cls-24" x="150.57" y="48.63" width="12.32" height="37.82"/>
        <rect class="cls-16" x="150.57" y="48.63" width="12.32" height="37.82"/>
        <polyline class="cls-7" points="184.08 86.43 184.08 49.88 182.37 49.88 182.37 86.43 180.5 86.43 180.5 49.88 178.79 49.88 178.79 86.43 176.66 86.43 176.66 49.88 174.95 49.88 174.95 86.43 172.6 86.43 172.6 49.88 170.9 49.88 170.9 86.43 168.43 86.43 168.43 49.88 166.72 49.88 166.72 86.43"/>
        <path class="cls-9" d="M196.45,74.88c1.85,7.3-6.95,7.34-7.2,1.88"/>
        <path class="cls-9" d="M196.51,70.99c1.75,9.71-9.37,8.71-6.82.57"/>
        <path class="cls-9" d="M196.63,67.09c1.45,10.48-9.56,7.59-6.73.86"/>
        <path class="cls-9" d="M189.88,56.35c2.79-1.5,6.56-.5,7.09,3.32,1.1,8.04-7.7,8-7.71,2.1-.02-6.11,7.62-6.12,7.84,1.93.23,8.51-7.68,7.31-7.76,2.08-.08-4.91,5.18-6.32,7.05-1.8"/>
        <path class="cls-9" d="M160.02,74.27c1.85,7.3-6.95,7.34-7.2,1.88"/>
        <path class="cls-9" d="M160.07,70.38c1.75,9.71-9.37,8.71-6.82.57"/>
        <path class="cls-9" d="M160.19,66.48c1.45,10.48-9.56,7.59-6.73.86"/>
        <path class="cls-9" d="M153.44,55.74c2.79-1.5,6.56-.5,7.09,3.32,1.1,8.04-7.7,8-7.71,2.1-.02-6.11,7.62-6.12,7.84,1.93.23,8.51-7.68,7.31-7.76,2.08-.08-4.91,5.18-6.32,7.05-1.8"/>
        <line class="cls-12" x1="95.49" y1="81.88" x2="112.75" y2="81.88"/>
        <line class="cls-12" x1="95.49" y1="108.55" x2="112.75" y2="108.55"/>
        <line class="cls-10" x1="39.64" y1="80.29" x2="71.03" y2="80.29"/>
        <polygon class="cls-21" points="70.6 81.76 73.14 80.29 70.6 78.82 70.6 81.76"/>
        <line class="cls-1" x1="39.64" y1="108.55" x2="71.03" y2="108.55"/>
        <polygon class="cls-20" points="70.6 110.01 73.14 108.54 70.6 107.08 70.6 110.01"/>
      </g>
      <text class="cls-18" transform="translate(14.72 8.43)"><tspan x="0" y="0">Input</tspan></text>
      <text class="cls-18" transform="translate(139.26 9.02)"><tspan x="0" y="0">System</tspan></text>
      <text class="cls-18" transform="translate(266.93 35.21)"><tspan x="0" y="0">Demand</tspan></text>
      <g class="cls-32">
        <line class="cls-3" x1="200.09" y1="62.72" x2="268.13" y2="62.72"/>
        <polygon class="cls-22" points="267.59 64.55 270.77 62.72 267.59 60.88 267.59 64.55"/>
        <line class="cls-3" x1="224.28" y1="65.68" x2="224.28" y2="77.27"/>
        <polygon class="cls-22" points="222.45 66.22 224.28 63.04 226.12 66.22 222.45 66.22"/>
        <polygon class="cls-22" points="222.45 76.74 224.28 79.92 226.12 76.74 222.45 76.74"/>
      </g>
      <text class="cls-19" transform="translate(131.55 116.15)"><tspan x="0" y="0">Battery</tspan></text>
      <text class="cls-19" transform="translate(66.72 98.24)"><tspan x="0" y="0">Wind turbines</tspan></text>
      <text class="cls-19" transform="translate(83.45 118.62)"><tspan x="0" y="0">PV</tspan></text>
      <text class="cls-19" transform="translate(210.31 110.36)"><tspan x="0" y="0">Storage tank</tspan></text>
      <text class="cls-19" transform="translate(150.01 93.07)"><tspan x="0" y="0">Ethylene production</tspan></text>
      <text class="cls-19" transform="translate(165.79 99.26)"><tspan x="0" y="0">process</tspan></text>
      <text class="cls-19" transform="translate(262.04 78.4)"><tspan x="0" y="0">Constant ethylene</tspan></text>
      <text class="cls-19" transform="translate(274.6 84.58)"><tspan x="0" y="0">demand</tspan></text>
      <text class="cls-19" transform="translate(14.61 36.42)"><tspan x="0" y="0">Feedstock</tspan></text>
      <text class="cls-19" transform="translate(12.85 94.57)"><tspan x="0" y="0">Wind speed</tspan></text>
      <text class="cls-19" transform="translate(6.22 120.55)"><tspan x="0" y="0">Solar radiation</tspan></text>
      <g class="cls-27">
        <polygon class="cls-17" points="73.4 103.26 91.21 103.26 95.47 113.63 77.65 113.63 73.4 103.26"/>
        <polygon class="cls-14" points="73.4 103.26 91.21 103.26 95.47 113.63 77.65 113.63 73.4 103.26"/>
        <line class="cls-14" x1="76.23" y1="110.18" x2="94.05" y2="110.18"/>
        <line class="cls-14" x1="74.81" y1="106.72" x2="92.63" y2="106.72"/>
        <line class="cls-17" x1="86.76" y1="103.26" x2="91.01" y2="113.63"/>
        <line class="cls-14" x1="86.76" y1="103.26" x2="91.01" y2="113.63"/>
        <line class="cls-17" x1="82.3" y1="103.26" x2="86.56" y2="113.63"/>
        <line class="cls-14" x1="82.3" y1="103.26" x2="86.56" y2="113.63"/>
        <line class="cls-17" x1="77.85" y1="103.26" x2="82.11" y2="113.63"/>
        <line class="cls-14" x1="77.85" y1="103.26" x2="82.11" y2="113.63"/>
        <polyline class="cls-12" points="125.33 56.96 112.75 66.48 112.75 108.55"/>
        <polygon class="cls-25" points="124.1 56.05 127.01 55.68 125.87 58.39 124.1 56.05"/>
        <path class="cls-9" d="M67.11.28h172.34c4.82,0,8.74,3.92,8.74,8.74v105.84c0,4.82-3.92,8.74-8.74,8.74H67.11c-4.82,0-8.74-3.92-8.74-8.74V9.02c0-4.82,3.92-8.74,8.74-8.74Z"/>
        <rect class="cls-9" x=".28" y=".28" width="49.44" height="123.33" rx="8.74" ry="8.74"/>
        <rect class="cls-16" x="258.07" y="25.6" width="52.67" height="70.9" rx="8.74" ry="8.74"/>
        <path class="cls-17" d="M14.2,82.19v-1.98h.2c6.22,0,12.43,0,18.65,0,.46,0,.87-.15,1.23-.52.72-.75.7-2.22-.03-2.95-.69-.68-1.54-.66-2.2.05-.28.31-.45.7-.5,1.17-.03.26-.02.26-.25.26h-1.44c.02-.23.03-.45.06-.66.28-1.9,1.63-3.28,3.23-3.31,1.6-.02,3.04,1.47,3.28,3.37.24,1.91-.72,3.82-2.29,4.39-.32.12-.67.18-1.01.18-6.27.01-12.53,0-18.8,0-.04,0-.08,0-.14,0"/>
        <path class="cls-17" d="M15.86,78.22v-1.99h.2c3.2,0,6.4,0,9.6,0,.57,0,1.03-.25,1.39-.78.52-.76.43-2.01-.2-2.65-.77-.79-1.81-.67-2.43.29-.18.28-.29.6-.3.96,0,.15-.05.21-.18.21-.44,0-.89,0-1.33,0-.04,0-.09,0-.16,0,.03-.28.03-.55.08-.81.25-1.26.85-2.19,1.83-2.76,1.37-.79,3.05-.31,3.98,1.13,1.26,1.96.8,4.73-1,5.94-.45.3-.93.47-1.44.48-.59.01-1.19,0-1.78,0-2.68,0-5.37,0-8.05,0h-.2Z"/>
        <path class="cls-17" d="M19.15,84.18h.17c3.77,0,7.54,0,11.31,0,.76,0,1.42.29,1.93.99.57.78.74,1.71.54,2.7-.28,1.38-1.19,2.23-2.38,2.26-1.29.04-2.44-1.26-2.5-2.8,0-.14.03-.18.15-.18.45,0,.9,0,1.35,0,.11,0,.15.03.17.17.06.51.35.8.79.82.41.02.73-.26.82-.74.12-.68-.21-1.22-.76-1.23-.08,0-.16,0-.25,0h-11.14q-.21,0-.21-.24v-1.74Z"/>
        <polygon class="cls-17" points="35.62 107.68 30.18 107.84 34.44 110.7 29.3 109.24 32.15 113.2 27.92 110.31 29.02 114.89 26.21 110.91 25.42 115.56 24.38 110.97 21.79 115.13 22.64 110.49 18.57 113.66 21.21 109.52 16.15 111.32 20.25 108.18 14.81 108.39 19.89 106.63 14.73 105.22 20.17 105.06 15.9 102.21 21.05 103.66 18.2 99.7 22.43 102.6 21.33 98.01 24.14 102 24.93 97.34 25.97 101.94 28.56 97.77 27.71 102.42 31.77 99.24 29.14 103.39 34.2 101.59 30.09 104.73 35.53 104.52 30.45 106.27 35.62 107.68"/>
        <polygon class="cls-15" points="35.62 107.68 30.18 107.84 34.44 110.7 29.3 109.24 32.15 113.2 27.92 110.31 29.02 114.89 26.21 110.91 25.42 115.56 24.38 110.97 21.79 115.13 22.64 110.49 18.57 113.66 21.21 109.52 16.15 111.32 20.25 108.18 14.81 108.39 19.89 106.63 14.73 105.22 20.17 105.06 15.9 102.21 21.05 103.66 18.2 99.7 22.43 102.6 21.33 98.01 24.14 102 24.93 97.34 25.97 101.94 28.56 97.77 27.71 102.42 31.77 99.24 29.14 103.39 34.2 101.59 30.09 104.73 35.53 104.52 30.45 106.27 35.62 107.68"/>
        <path class="cls-25" d="M129.83,54.99c-.74.83-2.01.89-2.84.15-.83-.74-.89-2.01-.15-2.84.74-.83,2.01-.89,2.84-.15.83.74.89,2.01.15,2.84"/>
        <path class="cls-4" d="M129.83,54.99c-.74.83-2.01.89-2.84.15-.83-.74-.89-2.01-.15-2.84.74-.83,2.01-.89,2.84-.15.83.74.89,2.01.15,2.84Z"/>
        <line class="cls-12" x1="131.66" y1="53.53" x2="147.82" y2="53.53"/>
        <polygon class="cls-25" points="147.39 55 149.93 53.53 147.39 52.06 147.39 55"/>
        <line class="cls-12" x1="130.21" y1="57.76" x2="137.95" y2="97.19"/>
        <polygon class="cls-25" points="128.85 58.46 129.81 55.68 131.74 57.9 128.85 58.46"/>
        <polygon class="cls-25" points="136.42 97.05 138.35 99.26 139.31 96.48 136.42 97.05"/>
        <path class="cls-16" d="M281.3,62.65c0,1.55-1.22,2.81-2.72,2.81s-2.72-1.26-2.72-2.81,1.22-2.81,2.72-2.81,2.72,1.26,2.72,2.81Z"/>
        <path class="cls-16" d="M291.63,62.65c0,1.55-1.22,2.81-2.72,2.81s-2.72-1.26-2.72-2.81,1.22-2.81,2.72-2.81,2.72,1.26,2.72,2.81Z"/>
        <path class="cls-7" d="M297.51,55.35c0,.96-.76,1.75-1.69,1.75s-1.69-.78-1.69-1.75.76-1.75,1.69-1.75,1.69.78,1.69,1.75Z"/>
        <path class="cls-7" d="M273.54,55.35c0,.96-.76,1.75-1.69,1.75s-1.69-.78-1.69-1.75.76-1.75,1.69-1.75,1.69.78,1.69,1.75Z"/>
        <path class="cls-7" d="M273.54,70.21c0,.96-.76,1.75-1.69,1.75s-1.69-.78-1.69-1.75.76-1.75,1.69-1.75,1.69.78,1.69,1.75Z"/>
        <path class="cls-7" d="M297.51,70.21c0,.96-.76,1.75-1.69,1.75s-1.69-.78-1.69-1.75.76-1.75,1.69-1.75,1.69.78,1.69,1.75Z"/>
        <line class="cls-7" x1="281.24" y1="62.07" x2="286.18" y2="62.07"/>
        <line class="cls-7" x1="281.15" y1="63.55" x2="286.18" y2="63.55"/>
        <line class="cls-7" x1="290.78" y1="60.61" x2="294.67" y2="56.59"/>
        <line class="cls-7" x1="290.76" y1="64.71" x2="294.77" y2="68.85"/>
        <line class="cls-7" x1="276.79" y1="60.53" x2="273.01" y2="56.62"/>
        <line class="cls-7" x1="276.82" y1="64.79" x2="272.89" y2="68.84"/>
        <line class="cls-6" x1="39.64" y1="25.36" x2="160.78" y2="25.36"/>
        <polygon class="cls-17" points="160.35 26.83 162.89 25.36 160.35 23.89 160.35 26.83"/>
      </g>
    </g>
  </g>
</svg>